<?xml version="1.0" encoding="UTF-8" standalone="no"?>
<svg
   width="40.639999mm"
   height="128.5mm"
   viewBox="0 0 153.59999 485.66929"
   fill="none"
   version="1.1"
   id="svg7"
   sodipodi:docname="Basic.svg"
   inkscape:export-filename="Basic.png"
   inkscape:export-xdpi="96"
   inkscape:export-ydpi="96"
   xmlns:inkscape="http://www.inkscape.org/namespaces/inkscape"
   xmlns:sodipodi="http://sodipodi.sourceforge.net/DTD/sodipodi-0.dtd"
   xmlns="http://www.w3.org/2000/svg"
   xmlns:svg="http://www.w3.org/2000/svg">
  <defs
     id="defs7" />
  <sodipodi:namedview
     id="namedview7"
     pagecolor="#505050"
     bordercolor="#ffffff"
     borderopacity="1"
     inkscape:showpageshadow="0"
     inkscape:pageopacity="0"
     inkscape:pagecheckerboard="1"
     inkscape:deskcolor="#505050"
     inkscape:document-units="mm" />
  <rect
     width="154"
     height="486"
     fill="#f4f4f4"
     id="rect1"
     x="0"
     y="0" />
  <path
     d="m 39.3047,89.0312 c -1.0729,0 -1.8333,-0.2161 -2.2813,-0.6484 -0.4427,-0.4375 -0.664,-1.1823 -0.664,-2.2344 v -4.7812 h -2.336 V 80.25 h 2.336 v -2.2891 l 1.4375,-0.625 V 80.25 h 3.2656 v 1.1172 h -3.2656 v 4.7812 c 0,0.6407 0.1224,1.0912 0.3672,1.3516 0.2448,0.2552 0.6718,0.3828 1.2812,0.3828 h 1.6172 v 1.1484 z m 4.8594,-12.1874 h 1.4375 v 4.7187 c 0.526,-1.0156 1.388,-1.5234 2.5859,-1.5234 0.7187,0 1.2682,0.1666 1.6484,0.5 0.3855,0.3333 0.6511,0.7682 0.7969,1.3047 0.1458,0.5364 0.2188,1.1145 0.2188,1.7343 V 89 h -1.4454 v -5.4219 c 0,-0.7864 -0.138,-1.3646 -0.414,-1.7343 -0.2761,-0.3698 -0.7057,-0.5547 -1.2891,-0.5547 -0.5416,0 -0.9661,0.1354 -1.2734,0.4062 -0.3021,0.2656 -0.5156,0.6094 -0.6406,1.0313 -0.125,0.4218 -0.1875,0.8645 -0.1875,1.3281 V 89 H 44.1641 Z M 54.6406,80.25 h 1.3047 l 0.1406,1.7109 c 0.2448,-0.6198 0.612,-1.0937 1.1016,-1.4218 0.4948,-0.3334 1.0859,-0.5 1.7734,-0.5 0.7188,0 1.3438,0.1823 1.875,0.5468 v 1.4688 c -0.5625,-0.4583 -1.2291,-0.6875 -2,-0.6875 -0.8854,0 -1.5651,0.2838 -2.039,0.8516 -0.474,0.5624 -0.711,1.3723 -0.711,2.4296 V 89 h -1.4453 z m 12.5782,8.9766 c -1.349,0 -2.4089,-0.4037 -3.1797,-1.211 -0.7657,-0.8125 -1.1485,-1.9192 -1.1485,-3.3203 0,-0.8698 0.1511,-1.6562 0.4532,-2.3594 0.3072,-0.7031 0.7604,-1.2604 1.3593,-1.6718 0.6042,-0.4167 1.349,-0.625 2.2344,-0.625 1.1667,0 2.0703,0.375 2.7109,1.125 0.6459,0.7448 0.9688,1.7786 0.9688,3.1015 v 0.7032 h -6.2266 v 0.0468 c 0,0.9115 0.2396,1.638 0.7188,2.1797 0.4791,0.5417 1.1875,0.8125 2.125,0.8125 0.5416,0 1.0651,-0.0859 1.5703,-0.2578 0.5104,-0.1719 1.0026,-0.3802 1.4765,-0.625 v 1.4297 c -0.4947,0.2031 -0.9973,0.3646 -1.5078,0.4844 -0.5052,0.125 -1.0234,0.1875 -1.5546,0.1875 z m 1.9609,-5.3828 c 0,-0.4844 -0.0729,-0.9219 -0.2188,-1.3126 -0.1458,-0.3906 -0.3802,-0.7005 -0.7031,-0.9296 -0.3177,-0.2292 -0.7396,-0.3438 -1.2656,-0.3438 -0.5313,0 -0.9766,0.1172 -1.336,0.3516 -0.3541,0.2291 -0.6328,0.539 -0.8359,0.9297 -0.1979,0.3906 -0.3229,0.8255 -0.375,1.3047 z m 6.9844,5.3828 c -0.8334,0 -1.8125,-0.1823 -2.9375,-0.5469 v -1.4844 c 1.0937,0.5521 2.0677,0.8281 2.9218,0.8281 0.6094,0 1.0964,-0.1276 1.461,-0.3828 0.3646,-0.2552 0.5468,-0.5963 0.5468,-1.0234 0,-0.3698 -0.1536,-0.6667 -0.4609,-0.8906 -0.3021,-0.2292 -0.7864,-0.4141 -1.4531,-0.5547 l -0.6016,-0.125 c -0.8229,-0.1667 -1.4271,-0.4401 -1.8125,-0.8203 -0.3802,-0.3855 -0.5703,-0.9089 -0.5703,-1.5704 0,-0.8385 0.2865,-1.4843 0.8594,-1.9374 0.5729,-0.4532 1.388,-0.6797 2.4453,-0.6797 0.8958,0 1.763,0.1718 2.6016,0.5156 v 1.4062 c -0.8177,-0.4791 -1.6719,-0.7187 -2.5625,-0.7187 -1.2605,0 -1.8907,0.4297 -1.8907,1.289 0,0.2813 0.0547,0.5053 0.1641,0.6719 0.1094,0.1615 0.3177,0.2995 0.625,0.4141 0.3073,0.1094 0.7604,0.2239 1.3594,0.3437 l 0.5781,0.1094 c 1.4479,0.2865 2.1719,1.0755 2.1719,2.3672 0,0.8646 -0.3073,1.5469 -0.9219,2.0469 -0.6146,0.4948 -1.4557,0.7422 -2.5234,0.7422 z m 6.5625,-12.3828 h 1.4375 v 4.7187 c 0.526,-1.0156 1.388,-1.5234 2.5859,-1.5234 0.7188,0 1.2682,0.1666 1.6484,0.5 0.3855,0.3333 0.6511,0.7682 0.7969,1.3047 0.1458,0.5364 0.2188,1.1145 0.2188,1.7343 V 89 h -1.4453 v -5.4219 c 0,-0.7864 -0.1381,-1.3646 -0.4141,-1.7343 -0.2761,-0.3698 -0.7057,-0.5547 -1.2891,-0.5547 -0.5416,0 -0.9661,0.1354 -1.2734,0.4062 -0.3021,0.2656 -0.5156,0.6094 -0.6406,1.0313 -0.125,0.4218 -0.1875,0.8645 -0.1875,1.3281 V 89 h -1.4375 z m 12.9453,12.3828 c -1.2188,0 -2.1511,-0.3933 -2.7969,-1.1797 -0.6406,-0.7917 -0.9609,-1.9271 -0.9609,-3.4063 0,-1.4844 0.3229,-2.6224 0.9687,-3.414 0.6458,-0.7917 1.5729,-1.1875 2.7813,-1.1875 1.2083,0 2.1328,0.3958 2.7734,1.1875 0.6458,0.7864 0.9687,1.927 0.9687,3.4218 0,1.4844 -0.3203,2.6198 -0.9609,3.4063 -0.6406,0.7812 -1.5651,1.1719 -2.7734,1.1719 z m -0.0078,-1.2188 c 0.7135,0 1.2604,-0.2917 1.6406,-0.875 0.3854,-0.5833 0.5781,-1.4193 0.5781,-2.5078 0,-1.0833 -0.1927,-1.9141 -0.5781,-2.4922 -0.3802,-0.5833 -0.9271,-0.875 -1.6406,-0.875 -0.7188,0 -1.2709,0.2917 -1.6563,0.875 -0.3802,0.5781 -0.5703,1.4089 -0.5703,2.4922 0,1.0885 0.1927,1.9245 0.5781,2.5078 0.3854,0.5833 0.9349,0.875 1.6485,0.875 z m 11.2339,1.0547 c -0.859,0 -1.526,-0.276 -2,-0.8281 -0.468,-0.5573 -0.703,-1.3386 -0.703,-2.3438 v -7.9218 h -2.304 v -1.125 h 3.742 v 9.0468 c 0,0.6354 0.12,1.1198 0.359,1.4532 0.24,0.3333 0.589,0.5 1.047,0.5 h 1.68 v 1.2187 z m 7.555,0.1641 c -0.635,0 -1.169,-0.1355 -1.601,-0.4063 -0.433,-0.2708 -0.779,-0.6328 -1.04,-1.0859 -0.255,-0.4532 -0.44,-0.9532 -0.554,-1.5 -0.115,-0.5521 -0.172,-1.1068 -0.172,-1.6641 0,-1.3958 0.305,-2.5 0.914,-3.3125 0.615,-0.8125 1.443,-1.2187 2.484,-1.2187 0.511,0 0.969,0.1093 1.375,0.3281 0.407,0.2135 0.73,0.5469 0.969,1 v -4.5234 h 1.438 V 89 h -1.297 l -0.141,-1.1016 c -0.516,0.8855 -1.307,1.3282 -2.375,1.3282 z m 0.258,-1.2188 c 0.453,0 0.818,-0.1068 1.094,-0.3203 0.281,-0.2135 0.494,-0.4896 0.64,-0.8281 0.151,-0.3438 0.253,-0.711 0.305,-1.1016 0.052,-0.3958 0.078,-0.7734 0.078,-1.1328 0,-0.3542 -0.026,-0.7266 -0.078,-1.1172 -0.052,-0.3906 -0.154,-0.7552 -0.305,-1.0937 -0.146,-0.3438 -0.359,-0.6224 -0.64,-0.836 -0.276,-0.2135 -0.641,-0.3203 -1.094,-0.3203 -0.458,0 -0.828,0.1068 -1.109,0.3203 -0.276,0.2136 -0.487,0.4922 -0.633,0.836 -0.141,0.3385 -0.237,0.7031 -0.289,1.0937 -0.052,0.3906 -0.078,0.763 -0.078,1.1172 0,0.3542 0.026,0.7292 0.078,1.125 0.052,0.3906 0.148,0.7578 0.289,1.1016 0.146,0.3385 0.357,0.6172 0.633,0.8359 0.281,0.2135 0.651,0.3203 1.109,0.3203 z"
     fill="#000000"
     id="path1" />
  <path
     d="m 71.0859,277.664 c -0.1562,0 -0.2343,-0.078 -0.2343,-0.234 v -1.352 c 0,-0.156 0.0781,-0.234 0.2343,-0.234 h 1.125 c 0.1563,0 0.2344,0.078 0.2344,0.234 v 1.352 c 0,0.156 -0.0781,0.234 -0.2344,0.234 z m 2.625,10.398 c -0.8593,0 -1.526,-0.276 -2,-0.828 -0.4687,-0.557 -0.7031,-1.338 -0.7031,-2.343 v -4.516 h -1.914 v -1.125 h 3.3515 v 5.641 c 0,0.635 0.1198,1.119 0.3594,1.453 0.2396,0.333 0.5885,0.5 1.0469,0.5 h 1.6796 v 1.218 z m 4.4532,-8.812 h 1.2968 l 0.1407,1.312 c 0.526,-1.015 1.3828,-1.523 2.5703,-1.523 1.7864,0 2.6797,1.18 2.6797,3.539 V 288 h -1.4454 v -5.422 c 0,-0.786 -0.138,-1.364 -0.414,-1.734 -0.2708,-0.37 -0.6927,-0.555 -1.2656,-0.555 -0.6823,0 -1.2084,0.242 -1.5782,0.727 -0.3645,0.479 -0.5468,1.158 -0.5468,2.039 V 288 h -1.4375 z"
     fill="#000000"
     id="path2" />
  <path
     d="m 66.8281,378.227 c -1.2187,0 -2.151,-0.394 -2.7969,-1.18 -0.6406,-0.792 -0.9609,-1.927 -0.9609,-3.406 0,-1.485 0.3229,-2.623 0.9688,-3.414 0.6458,-0.792 1.5729,-1.188 2.7812,-1.188 1.2083,0 2.1328,0.396 2.7735,1.188 0.6458,0.786 0.9687,1.927 0.9687,3.421 0,1.485 -0.3203,2.62 -0.9609,3.407 -0.6407,0.781 -1.5651,1.172 -2.7735,1.172 z m -0.0078,-1.219 c 0.7136,0 1.2604,-0.292 1.6406,-0.875 0.3855,-0.584 0.5782,-1.419 0.5782,-2.508 0,-1.083 -0.1927,-1.914 -0.5782,-2.492 -0.3802,-0.584 -0.927,-0.875 -1.6406,-0.875 -0.7187,0 -1.2708,0.291 -1.6562,0.875 -0.3802,0.578 -0.5703,1.409 -0.5703,2.492 0,1.089 0.1927,1.924 0.5781,2.508 0.3854,0.583 0.9349,0.875 1.6484,0.875 z m 9.0078,1.219 c -1.776,0 -2.664,-1.18 -2.664,-3.539 v -5.422 h 1.4375 v 5.422 c 0,1.526 0.5703,2.289 1.7109,2.289 0.6667,0 1.1823,-0.24 1.5469,-0.719 0.3646,-0.485 0.5468,-1.167 0.5468,-2.047 v -4.945 h 1.4454 V 378 h -1.3047 l -0.1407,-1.312 c -0.5208,1.026 -1.3802,1.539 -2.5781,1.539 z m 11.7578,-0.196 c -1.0729,0 -1.8333,-0.216 -2.2812,-0.648 -0.4427,-0.438 -0.6641,-1.182 -0.6641,-2.235 v -4.781 h -2.3359 v -1.117 h 2.3359 v -2.289 l 1.4375,-0.625 v 2.914 h 3.2657 v 1.117 h -3.2657 v 4.781 c 0,0.641 0.1224,1.092 0.3672,1.352 0.2448,0.255 0.6719,0.383 1.2813,0.383 h 1.6172 v 1.148 z"
     fill="#000000"
     id="path3" />
  <path
     d="m 41.9453,27.5039 h 5.1797 c 1.7812,0 3.1602,0.3867 4.1367,1.1602 0.9688,0.7734 1.4531,1.8711 1.4531,3.2929 0,0.5469 -0.0664,1.0313 -0.1992,1.4532 -0.1328,0.414 -0.3203,0.7695 -0.5625,1.0664 -0.25,0.2968 -0.5664,0.5468 -0.9492,0.75 -0.3828,0.1953 -0.8359,0.332 -1.3594,0.4101 1.1563,0.1719 2.0586,0.6602 2.7071,1.4649 0.6484,0.8046 0.9726,1.8398 0.9726,3.1054 0,1.5782 -0.5195,2.7696 -1.5586,3.5742 C 50.7188,44.5938 49.1719,45 47.125,45 h -5.1797 z m 5.1328,7.2188 c 1.1563,0 1.9844,-0.2227 2.4844,-0.668 0.5078,-0.4375 0.7617,-1.1289 0.7617,-2.0742 0,-0.9141 -0.25,-1.5625 -0.75,-1.9453 -0.5078,-0.3907 -1.3398,-0.586 -2.4961,-0.586 h -2.7539 v 5.2735 z m 0.0469,8.332 c 1.3594,0 2.3398,-0.2422 2.9414,-0.7266 0.5859,-0.4843 0.8789,-1.2734 0.8789,-2.3672 0,-1.1406 -0.3086,-1.9804 -0.9258,-2.5195 -0.625,-0.5312 -1.5898,-0.7969 -2.8945,-0.7969 h -2.8008 v 6.4102 z m 13.3008,2.2851 c -1.2656,0 -2.3125,-0.3632 -3.1406,-1.0898 -0.8204,-0.7344 -1.2305,-1.7852 -1.2305,-3.1523 0,-1.1329 0.2734,-2.0157 0.8203,-2.6485 0.5469,-0.6406 1.2617,-1.0898 2.1445,-1.3476 0.8828,-0.2578 1.8243,-0.3868 2.8243,-0.3868 h 2.8945 V 36.375 c 0,-1.1172 -0.2852,-1.8945 -0.8555,-2.332 -0.5625,-0.4375 -1.3555,-0.6563 -2.3789,-0.6563 -0.7969,0 -1.5781,0.1094 -2.3437,0.3281 -0.7657,0.2188 -1.4805,0.5235 -2.1446,0.9141 v -2.1562 c 0.7188,-0.2657 1.4453,-0.4844 2.1797,-0.6563 0.7344,-0.1719 1.4844,-0.2578 2.25,-0.2578 0.7813,0 1.5391,0.1094 2.2735,0.3281 0.7421,0.211 1.3828,0.5625 1.9218,1.0547 0.5391,0.4844 0.8985,1.1367 1.0782,1.957 0.125,0.5782 0.1874,1.4493 0.1874,2.6133 v 2.6836 c 0,0.7344 0.0391,1.5469 0.1172,2.4375 0.086,0.8906 0.2774,1.6797 0.5743,2.3672 h -2.168 c -0.1328,-0.3047 -0.2383,-0.6289 -0.3164,-0.9727 -0.0781,-0.3515 -0.1406,-0.6914 -0.1875,-1.0195 -0.461,0.7891 -1.1016,1.375 -1.9219,1.7578 -0.8125,0.3828 -1.6719,0.5742 -2.5781,0.5742 z m 0.5273,-1.8046 c 0.8907,0 1.6133,-0.2188 2.168,-0.6563 0.5625,-0.4375 0.9727,-1.0078 1.2305,-1.7109 0.2578,-0.711 0.3867,-1.4727 0.3867,-2.2852 v -0.4805 h -2.7305 c -0.6094,0 -1.207,0.0704 -1.793,0.211 -0.5781,0.1328 -1.0586,0.3906 -1.4414,0.7734 -0.375,0.3828 -0.5625,0.9414 -0.5625,1.6758 0,0.8281 0.2539,1.4492 0.7618,1.8633 0.5078,0.4062 1.1679,0.6094 1.9804,0.6094 z m 14.8711,1.8046 c -1.25,0 -2.7187,-0.2734 -4.4062,-0.8203 V 42.293 c 1.6406,0.8281 3.1015,1.2422 4.3828,1.2422 0.914,0 1.6445,-0.1914 2.1914,-0.5743 0.5469,-0.3828 0.8203,-0.8945 0.8203,-1.5351 0,-0.5547 -0.2305,-1 -0.6914,-1.336 -0.4531,-0.3437 -1.1797,-0.621 -2.1797,-0.832 l -0.9023,-0.1875 c -1.2344,-0.25 -2.1407,-0.6601 -2.7188,-1.2305 -0.5703,-0.5781 -0.8555,-1.3632 -0.8555,-2.3554 0,-1.2578 0.4297,-2.2266 1.2891,-2.9063 0.8594,-0.6797 2.082,-1.0195 3.668,-1.0195 1.3437,0 2.6445,0.2578 3.9023,0.7734 v 2.1094 c -1.2265,-0.7187 -2.5078,-1.0781 -3.8437,-1.0781 -1.8907,0 -2.836,0.6445 -2.836,1.9336 0,0.4219 0.0821,0.7578 0.2461,1.0078 0.1641,0.2422 0.4766,0.4492 0.9375,0.6211 0.461,0.164 1.1407,0.3359 2.0391,0.5156 l 0.8672,0.1641 c 2.1718,0.4297 3.2578,1.6133 3.2578,3.5507 0,1.2969 -0.461,2.3204 -1.3828,3.0704 -0.9219,0.7422 -2.1836,1.1132 -3.7852,1.1132 z M 89.5117,29.4961 c -0.2344,0 -0.3515,-0.1172 -0.3515,-0.3516 v -2.0273 c 0,-0.2344 0.1171,-0.3516 0.3515,-0.3516 h 1.6875 c 0.2344,0 0.3516,0.1172 0.3516,0.3516 v 2.0273 c 0,0.2344 -0.1172,0.3516 -0.3516,0.3516 z m 3.9375,15.5977 c -1.289,0 -2.289,-0.4141 -3,-1.2422 -0.7031,-0.836 -1.0547,-2.0078 -1.0547,-3.5157 V 33.5625 H 86.5234 V 31.875 h 5.0274 v 8.4609 c 0,0.9532 0.1797,1.6797 0.539,2.1797 0.3594,0.5 0.8829,0.75 1.5704,0.75 h 2.5195 v 1.8282 z m 12.6558,0.246 c -1.382,0 -2.546,-0.289 -3.492,-0.8671 -0.937,-0.586 -1.648,-1.3985 -2.133,-2.4375 -0.476,-1.0391 -0.7144,-2.2344 -0.7144,-3.586 0,-1.3594 0.2424,-2.5547 0.7264,-3.5859 0.485,-1.0391 1.199,-1.8477 2.145,-2.4258 0.945,-0.5859 2.117,-0.8789 3.515,-0.8789 0.727,0 1.383,0.0859 1.969,0.2578 0.586,0.1641 1.184,0.4141 1.793,0.75 v 2.2617 c -0.555,-0.4922 -1.113,-0.8554 -1.676,-1.0898 -0.554,-0.2344 -1.187,-0.3516 -1.898,-0.3516 -1.055,0 -1.899,0.2266 -2.531,0.6797 -0.625,0.4531 -1.079,1.0625 -1.36,1.8281 -0.273,0.7657 -0.41,1.6172 -0.41,2.5547 0,0.9297 0.141,1.7813 0.422,2.5547 0.281,0.7656 0.734,1.375 1.359,1.8281 0.625,0.4532 1.461,0.6797 2.508,0.6797 0.688,0 1.328,-0.1133 1.922,-0.3398 0.594,-0.2266 1.148,-0.586 1.664,-1.0781 v 2.2382 c -1.117,0.6719 -2.387,1.0078 -3.809,1.0078 z"
     fill="#000000"
     id="path4" />
  <g
     inkscape:groupmode="layer"
     id="layer1"
     inkscape:label="components">
    <circle
       cx="77"
       cy="317"
       r="10"
       fill="#00ff00"
       id="circle4"
       inkscape:label="in" />
    <circle
       cx="77"
       cy="162"
       r="36"
       fill="#ff0000"
       id="circle5"
       inkscape:label="threshold" />
    <circle
       cx="77"
       cy="407"
       r="10"
       fill="#0000ff"
       id="circle6"
       inkscape:label="out" />
  </g>
</svg>
